<svg xmlns="http://www.w3.org/2000/svg" width="24" height="24" viewBox="0 0 24 24"><path fill="none" stroke="#000" stroke-linejoin="round" stroke-miterlimit="10" d="M.5 7.894l.934 1.224S3.361 7.6 4.003 8.359c.643.759 3.093 9.925 3.912 11.617.714 1.483 2.685 3.444 4.845 2.042 2.16-1.399 9.341-7.529 10.626-14.769 1.284-7.238-8.642-5.723-9.692.583 2.627-1.578 4.029.642 2.686 3.153-1.342 2.51-2.568 4.146-3.211 4.146-.641 0-1.135-1.679-1.868-4.613-.76-3.035-.755-8.5-3.911-7.882C4.412 3.222.5 7.894.5 7.894z"/><path fill="none" d="M0 0h24v24H0z"/></svg>