<svg width="306" height="305" viewBox="0 0 306 305" xmlns="http://www.w3.org/2000/svg"><title>logo writing</title><g fill="#000" fill-rule="evenodd"><path d="M140 80.829L0 161.659V0zM305.349 231H306V0L106 115.47l47.397 27.365L257 86.168V202.65l1 .577v.436L305.349 231z"/><path d="M60 142.995v53.74L.651 231H0v-53.318l60-34.687zm60.988-35.259l46.204 26.676L200 115.47l-46.225-26.688-32.787 18.954zM41.269 254.32c-2.448 0-3.888 1.224-4.464 3.528l-5.976 24.768c-.504 2.376-.864 4.68-1.296 6.984h-.936c-.36-2.304-.72-4.608-1.296-6.984l-6.048-24.768c-.504-2.304-1.944-3.528-4.32-3.528H6.349c-2.664 0-3.96 1.44-4.104 4.104L.445 304h10.368l1.44-41.112h1.224l7.56 30.744c.504 2.376 2.016 3.528 4.464 3.528h7.2c2.448 0 3.96-1.152 4.464-3.528l7.488-30.744h1.224L47.533 304H57.9l-1.944-45.576c-.072-2.664-1.44-4.104-4.104-4.104H41.269zM93.9 290.968L97.5 304h11.16l-14.328-46.8c-.432-1.8-1.944-2.88-3.816-2.88H80.149c-1.8 0-3.384 1.08-3.816 2.88L62.005 304h11.232l3.6-13.032H93.9zm-2.376-8.496H79.14l4.176-15.192c.36-1.512.72-3.168 1.08-4.68h1.944c.216 1.512.648 3.168 1.008 4.68l4.176 15.192zm44.64 5.112l16.272-33.264h-11.304l-8.28 18.216c-.792 1.944-1.368 4.248-1.8 6.264h-.72c-.504-2.016-1.008-4.32-1.872-6.264l-8.28-18.216h-11.448l16.416 33.264V304h11.016v-16.416zm60.84-33.264H186.06v19.008h-17.568V254.32h-10.944V304h10.944v-22.176h17.568V304h10.944v-49.68zm43.128 41.112h-19.08c-2.376 0-3.384-1.08-3.384-3.744v-9.576h19.8v-7.92h-19.8v-7.56c0-2.592 1.008-3.672 3.384-3.672h19.08l.504-8.136c-6.768-.72-15.336-.72-23.04-.72-6.624 0-10.872 3.888-10.944 10.008v30.096c.072 6.12 4.32 10.008 10.944 10.008 7.704 0 16.272 0 23.04-.72l-.504-8.064zm48.312-41.112c-2.448 0-3.888 1.224-4.464 3.528l-5.976 24.768c-.504 2.376-.864 4.68-1.296 6.984h-.936c-.36-2.304-.72-4.608-1.296-6.984l-6.048-24.768c-.504-2.304-1.944-3.528-4.32-3.528h-10.584c-2.664 0-3.96 1.44-4.104 4.104L247.62 304h10.368l1.44-41.112h1.224l7.56 30.744c.504 2.376 2.016 3.528 4.464 3.528h7.2c2.448 0 3.96-1.152 4.464-3.528l7.488-30.744h1.224L294.709 304h10.368l-1.944-45.576c-.072-2.664-1.44-4.104-4.104-4.104h-10.584z"/></g></svg>
