<svg height="655.359" viewBox="0 0 6.82666 6.82666" width="655.359" xmlns="http://www.w3.org/2000/svg" shape-rendering="geometricPrecision" text-rendering="geometricPrecision" image-rendering="optimizeQuality" fill-rule="evenodd" clip-rule="evenodd"><defs><style>.fil1{fill:none}.fil0{fill:#212121;fill-rule:nonzero}</style></defs><path class="fil0" d="M5.715 2.008a2.067 2.067 0 0 1-.42.096.053.053 0 0 1-.03-.1.956.956 0 0 0 .361-.392 2.059 2.059 0 0 1-.525.178.053.053 0 0 1-.051-.018.952.952 0 0 0-1.621.872l-.052.012.052-.012a.053.053 0 0 1-.06.065 2.904 2.904 0 0 1-2.058-1.01.941.941 0 0 0-.093.412.95.95 0 0 0 .424.792l-.03.045.03-.045a.053.053 0 0 1-.035.098 1.02 1.02 0 0 1-.393-.092.95.95 0 0 0 .761.861l-.01.052.01-.052a.053.053 0 0 1 0 .105 1.069 1.069 0 0 1-.376.03h-.008a.958.958 0 0 0 .86.58l-.001.053.001-.053a.053.053 0 0 1 .028.098 2.075 2.075 0 0 1-1.3.438 2.794 2.794 0 0 0 1.325.332c.835 0 1.496-.318 1.966-.788a2.915 2.915 0 0 0 .843-2.025l-.003-.125c0-.02.01-.038.026-.048a1.977 1.977 0 0 0 .38-.359zm-.146-.066a1.97 1.97 0 0 0 .271-.096.053.053 0 0 1 .071.076 2.078 2.078 0 0 1-.494.518l.002.098v.006c0 .73-.3 1.523-.874 2.096-.488.489-1.175.82-2.041.82A2.91 2.91 0 0 1 .934 5a.053.053 0 0 1 .032-.1 2.142 2.142 0 0 0 .234.013 1.98 1.98 0 0 0 1.104-.336 1.058 1.058 0 0 1-.844-.719.053.053 0 0 1 .06-.073.955.955 0 0 0 .211.017 1.066 1.066 0 0 1-.627-.969v-.012c0-.009.002-.018.007-.026a.053.053 0 0 1 .073-.02.974.974 0 0 0 .25.096 1.063 1.063 0 0 1-.18-1.29.053.053 0 0 1 .09-.011l-.042.033.04-.033a2.796 2.796 0 0 0 1.969 1.028 1.078 1.078 0 0 1-.013-.172 1.056 1.056 0 0 1 1.06-1.06 1.058 1.058 0 0 1 .75.313 1.946 1.946 0 0 0 .594-.23.053.053 0 0 1 .08.06 1.07 1.07 0 0 1-.285.45l.072-.018z" id="Layer_x0020_1"/><path class="fil1" d="M0 0h6.827v6.827H0z"/></svg>